<svg width="91" height="85" viewBox="0 0 91 85" fill="none" xmlns="http://www.w3.org/2000/svg">
<path d="M24.9164 41.7079C24.8277 43.3285 25.3845 44.9184 26.4652 46.1295C27.5458 47.3405 29.0622 48.0742 30.6825 48.1699C30.8013 48.1699 30.925 48.1699 31.0365 48.1699C32.2334 48.169 33.4038 47.8175 34.4031 47.1588C35.4024 46.5001 36.1868 45.563 36.6594 44.4634C37.132 43.3638 37.272 42.1499 37.0623 40.9715C36.8526 39.7932 36.3022 38.7021 35.4792 37.8331C34.6562 36.9641 33.5966 36.3553 32.4314 36.0819C31.2662 35.8085 30.0464 35.8824 28.9227 36.2946C27.7991 36.7068 26.8208 37.4392 26.1088 38.4012C25.3968 39.3632 24.9823 40.5128 24.9164 41.7079Z" fill="#0033AD"/>
<path d="M2.0894 40.1291C1.69874 40.1072 1.31035 40.2016 0.973346 40.4004C0.636337 40.5992 0.365833 40.8934 0.196032 41.2459C0.0262301 41.5984 -0.0352456 41.9934 0.0193764 42.3808C0.0739984 42.7682 0.242266 43.1308 0.502906 43.4226C0.763546 43.7144 1.10486 43.9224 1.48369 44.0203C1.86252 44.1182 2.26187 44.1015 2.63124 43.9725C3.00062 43.8434 3.32344 43.6077 3.55889 43.2952C3.79434 42.9827 3.93185 42.6075 3.95405 42.2168C3.96911 41.9572 3.93279 41.6972 3.84717 41.4516C3.76155 41.2061 3.6283 40.9798 3.45508 40.7859C3.28185 40.5919 3.07205 40.4341 2.8377 40.3214C2.60334 40.2087 2.34905 40.1433 2.0894 40.1291Z" fill="#0033AD"/>
<path d="M24.5293 6.16759C24.8775 5.99029 25.1654 5.71386 25.3567 5.37316C25.548 5.03245 25.6341 4.64273 25.6043 4.25313C25.5744 3.86353 25.4298 3.4915 25.1888 3.18395C24.9478 2.87639 24.6211 2.64708 24.25 2.52494C23.8788 2.40279 23.4798 2.39328 23.1032 2.49759C22.7267 2.60191 22.3894 2.81539 22.134 3.1111C21.8786 3.40682 21.7165 3.77154 21.6681 4.15927C21.6197 4.547 21.6871 4.94039 21.862 5.28982C21.9793 5.52278 22.1414 5.73032 22.339 5.90056C22.5366 6.0708 22.7658 6.2004 23.0136 6.28193C23.2613 6.36346 23.5227 6.39533 23.7828 6.37571C24.0429 6.35609 24.2965 6.28537 24.5293 6.16759Z" fill="#0033AD"/>
<path d="M30.7407 16.9969C31.2807 16.7247 31.7278 16.2985 32.0255 15.7723C32.3233 15.246 32.4583 14.6432 32.4135 14.0402C32.3688 13.4372 32.1462 12.861 31.774 12.3845C31.4018 11.908 30.8967 11.5525 30.3224 11.363C29.7482 11.1735 29.1307 11.1585 28.548 11.32C27.9653 11.4814 27.4435 11.812 27.0486 12.2699C26.6538 12.7278 26.4035 13.2925 26.3296 13.8927C26.2556 14.4928 26.3613 15.1014 26.6332 15.6415C26.9984 16.3656 27.6362 16.9151 28.4064 17.1693C29.1766 17.4235 30.0162 17.3615 30.7407 16.9969Z" fill="#0033AD"/>
<path d="M9.83937 24.446C10.2562 24.7191 10.7447 24.8625 11.243 24.8579C11.7413 24.8534 12.2271 24.7011 12.6389 24.4205C13.0507 24.1398 13.37 23.7434 13.5564 23.2812C13.7429 22.8191 13.788 22.312 13.6863 21.8242C13.5845 21.3363 13.3403 20.8896 12.9847 20.5406C12.629 20.1915 12.1778 19.9558 11.6881 19.8632C11.1985 19.7706 10.6923 19.8253 10.2338 20.0204C9.77522 20.2155 9.38481 20.5422 9.11194 20.9592C8.74621 21.5181 8.61738 22.1993 8.75379 22.8532C8.8902 23.507 9.28067 24.08 9.83937 24.446Z" fill="#0033AD"/>
<path d="M13.5613 39.0372C12.957 39.0027 12.356 39.1482 11.8343 39.4552C11.3127 39.7623 10.8938 40.2172 10.6308 40.7624C10.3677 41.3076 10.2722 41.9185 10.3564 42.5179C10.4406 43.1174 10.7007 43.6784 11.1038 44.13C11.5069 44.5816 12.0348 44.9035 12.6209 45.055C13.2069 45.2065 13.8247 45.1807 14.3962 44.9811C14.9676 44.7814 15.467 44.4167 15.8311 43.9332C16.1953 43.4496 16.4079 42.8689 16.4419 42.2646C16.4876 41.4547 16.2098 40.6598 15.6697 40.0546C15.1295 39.4494 14.3712 39.0835 13.5613 39.0372Z" fill="#0033AD"/>
<path d="M10.184 59.5805C9.73889 59.8047 9.37028 60.1558 9.12477 60.5895C8.87927 61.0231 8.7679 61.5199 8.80475 62.0169C8.8416 62.5139 9.02502 62.9887 9.3318 63.3815C9.63858 63.7742 10.0549 64.0671 10.5282 64.2232C11.0015 64.3793 11.5104 64.3915 11.9907 64.2582C12.4709 64.125 12.9008 63.8524 13.226 63.4748C13.5513 63.0972 13.7572 62.6316 13.8178 62.137C13.8784 61.6423 13.791 61.1408 13.5665 60.6959C13.4181 60.4002 13.2127 60.1367 12.9622 59.9205C12.7117 59.7043 12.421 59.5397 12.1068 59.436C11.7925 59.3324 11.4609 59.2918 11.131 59.3166C10.801 59.3414 10.4792 59.4311 10.184 59.5805Z" fill="#0033AD"/>
<path d="M22.0655 32.706C22.6606 33.0963 23.358 33.3013 24.0697 33.2952C24.7813 33.2891 25.4751 33.0721 26.0635 32.6717C26.6518 32.2713 27.1081 31.7054 27.3748 31.0456C27.6416 30.3858 27.7066 29.6617 27.5619 28.9649C27.4171 28.2682 27.0689 27.63 26.5615 27.131C26.054 26.6321 25.41 26.2949 24.7108 26.162C24.0117 26.029 23.2888 26.1064 22.6337 26.3843C21.9785 26.6622 21.4205 27.1281 21.0301 27.7231C20.7705 28.1182 20.5914 28.5605 20.503 29.0249C20.4145 29.4892 20.4185 29.9664 20.5147 30.4293C20.6108 30.8921 20.7973 31.3314 21.0634 31.722C21.3295 32.1127 21.67 32.4471 22.0655 32.706Z" fill="#0033AD"/>
<path d="M59.7629 16.7551C60.269 17.0872 60.8621 17.2618 61.4674 17.2567C62.0726 17.2517 62.6628 17.0673 63.1633 16.7268C63.6637 16.3863 64.0519 15.905 64.2788 15.3439C64.5057 14.7827 64.5611 14.1669 64.4379 13.5742C64.3148 12.9816 64.0187 12.4388 63.587 12.0145C63.1553 11.5902 62.6075 11.3034 62.0129 11.1905C61.4182 11.0775 60.8035 11.1435 60.2463 11.3799C59.6891 11.6164 59.2146 12.0128 58.8827 12.519C58.6621 12.8549 58.5099 13.231 58.4348 13.6257C58.3597 14.0204 58.3631 14.4261 58.4448 14.8195C58.5265 15.2129 58.685 15.5864 58.9112 15.9185C59.1374 16.2506 59.4268 16.5349 59.7629 16.7551Z" fill="#0033AD"/>
<path d="M66.0381 5.95838C66.3654 6.17259 66.7489 6.28499 67.14 6.28136C67.5312 6.27774 67.9125 6.15825 68.2357 5.93801C68.559 5.71777 68.8097 5.40665 68.9563 5.04396C69.1028 4.68127 69.1385 4.2833 69.0589 3.90031C68.9793 3.51733 68.788 3.16653 68.5092 2.89223C68.2303 2.61793 67.8764 2.43244 67.4921 2.35921C67.1079 2.28597 66.7105 2.32827 66.3503 2.48077C65.9901 2.63326 65.6832 2.8891 65.4683 3.21596C65.3254 3.43337 65.2268 3.67682 65.1781 3.93239C65.1293 4.18796 65.1315 4.45063 65.1844 4.70535C65.2374 4.96008 65.34 5.20187 65.4865 5.41688C65.633 5.6319 65.8204 5.81591 66.0381 5.95838Z" fill="#0033AD"/>
<path d="M60.2437 35.8644C59.4409 35.8187 58.637 35.9316 57.8779 36.1965C57.1187 36.4615 56.4192 36.8734 55.8193 37.4088C55.2194 37.9441 54.7307 38.5923 54.3813 39.3165C54.0319 40.0406 53.8285 40.8265 53.7828 41.6293C53.7372 42.432 53.85 43.2359 54.115 43.9951C54.38 44.7542 54.7919 45.4537 55.3272 46.0536C55.8625 46.6536 56.5108 47.1422 57.2349 47.4916C57.9591 47.841 58.745 48.0444 59.5477 48.0901C59.6666 48.0901 59.7902 48.0901 59.8993 48.0901C61.4933 48.09 63.0244 47.4684 64.1672 46.3572C65.31 45.2461 65.9745 43.7331 66.0193 42.1398C66.0641 40.5464 65.4858 38.9985 64.4073 37.8248C63.3288 36.6511 61.8351 35.9444 60.2437 35.8547V35.8644Z" fill="#0033AD"/>
<path d="M32.7528 32.2835C33.2613 33.2975 34.0428 34.1494 35.0093 34.7431C35.9757 35.3369 37.0888 35.649 38.2231 35.6443C39.2684 35.6441 40.2963 35.3762 41.2088 34.8663C42.1213 34.3563 42.888 33.6212 43.4359 32.731C43.9838 31.8408 44.2947 30.8252 44.3389 29.7808C44.3832 28.7364 44.1593 27.6981 43.6886 26.7648C42.9577 25.3146 41.6807 24.2142 40.1385 23.7055C38.5962 23.1969 36.9151 23.3218 35.465 24.0527C34.0148 24.7835 32.9144 26.0605 32.4057 27.6028C31.8971 29.145 32.022 30.8261 32.7528 32.2763V32.2835Z" fill="#0033AD"/>
<path d="M80.7447 24.4393C81.1882 24.2136 81.5549 23.8615 81.7986 23.4276C82.0422 22.9937 82.1519 22.4973 82.1138 22.0011C82.0757 21.5049 81.8914 21.0311 81.5843 20.6395C81.2773 20.2479 80.8611 19.956 80.3883 19.8007C79.9155 19.6453 79.4073 19.6335 78.9278 19.7667C78.4483 19.8998 78.0189 20.172 77.6939 20.5489C77.3689 20.9258 77.1628 21.3904 77.1016 21.8843C77.0404 22.3782 77.1269 22.8791 77.3501 23.3239C77.4992 23.6205 77.7055 23.8847 77.957 24.1014C78.2085 24.3181 78.5004 24.483 78.8158 24.5866C79.1312 24.6903 79.4639 24.7306 79.7949 24.7053C80.126 24.68 80.4487 24.5897 80.7447 24.4393Z" fill="#0033AD"/>
<path d="M65.2259 26.3888C64.5906 26.7092 64.0645 27.2108 63.7143 27.8302C63.364 28.4495 63.2052 29.1588 63.258 29.8684C63.3107 30.578 63.5727 31.256 64.0107 31.8167C64.4487 32.3774 65.0431 32.7957 65.7188 33.0187C66.3945 33.2417 67.1211 33.2593 67.8068 33.0694C68.4926 32.8795 69.1066 32.4905 69.5713 31.9517C70.036 31.4129 70.3306 30.7484 70.4177 30.0423C70.5048 29.3361 70.3806 28.6199 70.0609 27.9843C69.6307 27.1321 68.8799 26.4855 67.9734 26.1864C67.0669 25.8872 66.0787 25.96 65.2259 26.3888Z" fill="#0033AD"/>
<path d="M45.2336 5.03473C45.7306 5.06258 46.2247 4.94254 46.6536 4.68979C47.0825 4.43704 47.4269 4.0629 47.6433 3.61459C47.8597 3.16628 47.9384 2.66391 47.8696 2.17088C47.8007 1.67785 47.5874 1.21628 47.2564 0.844413C46.9254 0.47255 46.4917 0.20707 46.01 0.0814859C45.5283 -0.0440987 45.0202 -0.0241586 44.5498 0.138789C44.0794 0.301737 43.6679 0.600388 43.3671 0.997044C43.0663 1.3937 42.8897 1.87058 42.8597 2.36748C42.8394 2.69872 42.8848 3.0307 42.9932 3.34433C43.1017 3.65796 43.2711 3.94704 43.4918 4.19494C43.7124 4.44283 43.9799 4.64465 44.2788 4.78878C44.5777 4.93291 44.9022 5.01649 45.2336 5.03473Z" fill="#0033AD"/>
<path d="M45.2042 20.8846C45.9145 20.9238 46.6205 20.7514 47.233 20.3895C47.8454 20.0275 48.3368 19.4921 48.6451 18.8509C48.9533 18.2098 49.0646 17.4916 48.9649 16.7872C48.8652 16.0828 48.5589 15.4238 48.0847 14.8935C47.6106 14.3631 46.9898 13.9852 46.301 13.8074C45.6121 13.6297 44.886 13.6602 44.2145 13.895C43.5429 14.1298 42.956 14.5584 42.528 15.1266C42.0999 15.6948 41.8499 16.3772 41.8095 17.0874C41.7827 17.5598 41.8492 18.0327 42.0053 18.4793C42.1615 18.9259 42.4041 19.3373 42.7194 19.69C43.0347 20.0427 43.4165 20.3297 43.8429 20.5347C44.2692 20.7397 44.7318 20.8586 45.2042 20.8846Z" fill="#0033AD"/>
<path d="M25.7019 57.6324C26.3375 57.3123 26.8639 56.8109 27.2145 56.1916C27.5652 55.5723 27.7243 54.8629 27.6718 54.1532C27.6193 53.4435 27.3575 52.7653 26.9196 52.2043C26.4816 51.6433 25.8871 51.2248 25.2114 51.0017C24.5356 50.7786 23.8088 50.7609 23.1229 50.9508C22.4371 51.1407 21.8229 51.5298 21.3582 52.0687C20.8934 52.6077 20.5989 53.2724 20.5119 53.9787C20.4248 54.685 20.5492 55.4013 20.8693 56.0369C21.299 56.8889 22.0493 57.5355 22.9554 57.8347C23.8615 58.1338 24.8493 58.0611 25.7019 57.6324Z" fill="#0033AD"/>
<path d="M47.5257 26.1358C46.7807 27.2741 46.4366 28.6284 46.5478 29.9843C46.659 31.3401 47.2192 32.6202 48.1396 33.622C49.0601 34.6237 50.2883 35.29 51.6299 35.5152C52.9716 35.7405 54.35 35.512 55.5472 34.8659C56.7444 34.2197 57.6919 33.1928 58.2399 31.9476C58.7879 30.7024 58.905 29.3101 58.5727 27.9909C58.2405 26.6716 57.4778 25.5009 56.4054 24.6638C55.333 23.8267 54.012 23.3711 52.6516 23.3691C51.6348 23.369 50.6338 23.6217 49.739 24.1047C48.8442 24.5877 48.0836 25.2857 47.5257 26.1358Z" fill="#0033AD"/>
<path d="M58.1753 51.7368C57.6304 50.6545 56.7767 49.7582 55.7224 49.1612C54.668 48.5643 53.4602 48.2934 52.2519 48.383C51.0435 48.4725 49.8889 48.9185 48.934 49.6644C47.9792 50.4103 47.267 51.4226 46.8876 52.5734C46.5082 53.7241 46.4786 54.9615 46.8026 56.129C47.1266 57.2966 47.7896 58.3418 48.7078 59.1324C49.6259 59.9231 50.758 60.4237 51.9607 60.5708C53.1634 60.718 54.3827 60.5051 55.4644 59.9592C56.1854 59.6007 56.8281 59.1027 57.3553 58.4942C57.8826 57.8856 58.2839 57.1785 58.536 56.4138C58.7881 55.6491 58.886 54.842 58.8241 54.0391C58.7622 53.2363 58.5417 52.4538 58.1753 51.7368Z" fill="#0033AD"/>
<path d="M68.8636 51.313C68.2685 50.9227 67.5711 50.7177 66.8594 50.7238C66.1478 50.7299 65.454 50.9469 64.8656 51.3473C64.2773 51.7477 63.821 52.3136 63.5543 52.9734C63.2875 53.6332 63.2225 54.3573 63.3672 55.054C63.512 55.7508 63.8602 56.389 64.3676 56.888C64.8751 57.3869 65.5191 57.7241 66.2183 57.857C66.9174 57.99 67.6403 57.9126 68.2954 57.6347C68.9506 57.3568 69.5086 56.8909 69.899 56.2959C70.1583 55.9007 70.3371 55.4584 70.4254 54.9941C70.5137 54.5298 70.5096 54.0527 70.4135 53.5899C70.3173 53.1272 70.131 52.688 69.865 52.2973C69.5991 51.9066 69.2588 51.5721 68.8636 51.313Z" fill="#0033AD"/>
<path d="M80.5941 42.1135C80.6287 41.5092 80.4832 40.9082 80.1761 40.3866C79.869 39.8649 79.4141 39.4461 78.869 39.183C78.3238 38.9199 77.7129 38.8245 77.1134 38.9087C76.514 38.9929 75.953 39.2529 75.5014 39.656C75.0498 40.0591 74.7279 40.5871 74.5764 41.1731C74.4249 41.7592 74.4506 42.377 74.6503 42.9484C74.85 43.5199 75.2147 44.0192 75.6982 44.3834C76.1817 44.7475 76.7624 44.9601 77.3668 44.9942C78.1767 45.0399 78.9716 44.7621 79.5767 44.2219C80.1819 43.6818 80.5479 42.9234 80.5941 42.1135Z" fill="#0033AD"/>
<path d="M89.0611 39.9387C88.6704 39.9167 88.282 40.0112 87.945 40.2099C87.608 40.4087 87.3375 40.703 87.1677 41.0555C86.9979 41.408 86.9364 41.8029 86.9911 42.1904C87.0457 42.5778 87.2139 42.9404 87.4746 43.2322C87.7352 43.524 88.0765 43.732 88.4554 43.8299C88.8342 43.9277 89.2336 43.9111 89.6029 43.782C89.9723 43.653 90.2951 43.4173 90.5306 43.1048C90.766 42.7923 90.9035 42.417 90.9257 42.0264C90.9548 41.5024 90.7749 40.9882 90.4253 40.5968C90.0757 40.2054 89.585 39.9687 89.0611 39.9387Z" fill="#0033AD"/>
<path d="M81.0883 59.5724C80.6715 59.2996 80.1831 59.1565 79.6849 59.1612C79.1867 59.166 78.7012 59.3183 78.2895 59.5989C77.8779 59.8796 77.5587 60.276 77.3724 60.738C77.186 61.2 77.1408 61.7069 77.2425 62.1946C77.3442 62.6824 77.5881 63.129 77.9436 63.478C78.2991 63.8271 78.75 64.0629 79.2395 64.1557C79.729 64.2485 80.235 64.1941 80.6936 63.9994C81.1521 63.8046 81.5426 63.4783 81.8158 63.0617C81.9972 62.7848 82.1224 62.475 82.184 62.1497C82.2457 61.8245 82.2427 61.4903 82.1751 61.1663C82.1075 60.8423 81.9768 60.5347 81.7903 60.2612C81.6038 59.9877 81.3653 59.7537 81.0883 59.5724Z" fill="#0033AD"/>
<path d="M24.8902 78.0642C24.5631 77.8493 24.1796 77.7363 23.7883 77.7393C23.397 77.7424 23.0154 77.8614 22.6917 78.0814C22.368 78.3013 22.1168 78.6123 21.9699 78.975C21.823 79.3377 21.7869 79.7359 21.8663 80.1191C21.9457 80.5023 22.1369 80.8534 22.4157 81.1279C22.6946 81.4024 23.0486 81.5881 23.4331 81.6614C23.8175 81.7348 24.215 81.6925 24.5753 81.5399C24.9357 81.3873 25.2427 81.1312 25.4576 80.8042C25.745 80.3654 25.8467 79.8305 25.7403 79.3169C25.634 78.8032 25.3282 78.3527 24.8902 78.0642Z" fill="#0033AD"/>
<path d="M66.3972 77.8551C66.049 78.0324 65.7611 78.3088 65.5698 78.6495C65.3785 78.9902 65.2923 79.3799 65.3222 79.7695C65.3521 80.1591 65.4966 80.5312 65.7376 80.8387C65.9787 81.1463 66.3054 81.3756 66.6765 81.4977C67.0477 81.6199 67.4467 81.6294 67.8232 81.5251C68.1998 81.4207 68.5371 81.2073 68.7925 80.9116C69.0479 80.6158 69.21 80.2511 69.2584 79.8634C69.3068 79.4757 69.2393 79.0823 69.0645 78.7328C68.9477 78.4994 68.7858 78.2914 68.5883 78.1208C68.3908 77.9502 68.1615 77.8204 67.9135 77.7388C67.6656 77.6572 67.404 77.6255 67.1438 77.6454C66.8835 77.6654 66.6298 77.7366 66.3972 77.8551Z" fill="#0033AD"/>
<path d="M43.4026 57.8827C44.1494 56.7432 44.4947 55.3872 44.384 54.0294C44.2733 52.6715 43.7129 51.3893 42.7914 50.3858C41.87 49.3823 40.6402 48.7148 39.2966 48.489C37.9531 48.2632 36.5726 48.4919 35.3737 49.139C34.1748 49.7861 33.226 50.8146 32.6774 52.0616C32.1289 53.3087 32.0119 54.7031 32.3451 56.0241C32.6782 57.3451 33.4425 58.5173 34.5168 59.355C35.5912 60.1928 36.9143 60.6483 38.2767 60.6494C39.2943 60.6535 40.2966 60.4025 41.1921 59.9191C42.0876 59.4358 42.8476 58.7357 43.4026 57.8827Z" fill="#0033AD"/>
<path d="M31.1653 67.2664C30.6592 66.9343 30.0661 66.7597 29.4608 66.7648C28.8555 66.7698 28.2654 66.9542 27.7649 67.2947C27.2645 67.6352 26.8763 68.1165 26.6494 68.6776C26.4225 69.2388 26.3671 69.8546 26.4903 70.4472C26.6134 71.0399 26.9095 71.5827 27.3412 72.007C27.7728 72.4313 28.3206 72.7181 28.9153 72.831C29.5099 72.944 30.1247 72.878 30.6819 72.6415C31.2391 72.4051 31.7136 72.0086 32.0455 71.5024C32.4903 70.8239 32.6475 69.9965 32.4824 69.2022C32.3173 68.4078 31.8436 67.7115 31.1653 67.2664Z" fill="#0033AD"/>
<path d="M45.4351 78.9836C44.938 78.9552 44.4437 79.0749 44.0145 79.3273C43.5853 79.5797 43.2406 79.9537 43.0238 80.4019C42.807 80.8502 42.7279 81.3526 42.7965 81.8457C42.865 82.3389 43.0782 82.8007 43.409 83.1728C43.7398 83.5449 44.1735 83.8106 44.6553 83.9364C45.137 84.0622 45.6453 84.0425 46.1158 83.8796C46.5863 83.7168 46.998 83.4182 47.299 83.0215C47.5999 82.6248 47.7765 82.1478 47.8066 81.6508C47.8266 81.3199 47.781 80.9882 47.6726 80.6749C47.5641 80.3615 47.3949 79.8249C47.1746 79.8249 46.6872 79.3752 46.3887 79.2308C46.0902 79.0865 45.7662 79.0024 45.4351 78.9836Z" fill="#0033AD"/>
<path d="M45.4621 63.1324C44.7519 63.0933 44.046 63.2656 43.4336 63.6275C42.8213 63.9894 42.3299 64.5246 42.0216 65.1657C41.7133 65.8067 41.6019 66.5247 41.7014 67.229C41.801 67.9333 42.1071 68.5923 42.581 69.1227C43.0549 69.6532 43.6754 70.0313 44.3641 70.2092C45.0528 70.3872 45.7787 70.3571 46.4503 70.1226C47.1219 69.8882 47.7089 69.46 48.1372 68.8921C48.5655 68.3242 48.8159 67.6421 48.8568 66.932C48.8837 66.4596 48.8171 65.9865 48.661 65.5397C48.5049 65.093 48.2623 64.6815 47.947 64.3286C47.6317 63.9757 47.25 63.6884 46.8236 63.4832C46.3973 63.2779 45.9346 63.1587 45.4621 63.1324Z" fill="#0033AD"/>
<path d="M60.1848 67.0218C59.6459 67.2958 59.2003 67.7233 58.9041 68.2503C58.608 68.7773 58.4745 69.3802 58.5206 69.983C58.5668 70.5857 58.7904 71.1613 59.1633 71.6371C59.5362 72.1129 60.0416 72.4676 60.6159 72.6565C61.1902 72.8453 61.8075 72.8598 62.39 72.6982C62.9725 72.5365 63.4941 72.206 63.889 71.7482C64.2838 71.2904 64.5342 70.726 64.6086 70.1261C64.683 69.5261 64.578 68.9176 64.3069 68.3773C64.1261 68.0169 63.8758 67.6957 63.5705 67.4323C63.2651 67.169 62.9107 66.9685 62.5277 66.8426C62.1446 66.7166 61.7404 66.6676 61.3383 66.6984C60.9363 66.7291 60.5442 66.8391 60.1848 67.0218Z" fill="#0033AD"/>
</svg>
