<svg width="32" height="32" viewBox="0 0 32 32" fill="none" xmlns="http://www.w3.org/2000/svg">
<path d="M0 10C0 4.47715 4.47715 0 10 0H22C27.5228 0 32 4.47715 32 10V22C32 27.5228 27.5228 32 22 32H10C4.47715 32 0 27.5228 0 22V10Z" fill="#5302B6" fill-opacity="0.45"/>
<path d="M10.9994 18.2113C11.492 18.708 12.0645 19.1205 12.6917 19.4152C12.8348 19.4826 12.9738 19.5415 13.1169 19.6004C12.1066 18.527 11.4878 17.1462 11.3446 15.6729C11.0542 16.4853 10.9405 17.3483 10.9994 18.2113Z" fill="#FD9A7A"/>
<path d="M20.9252 16.039C21.2157 15.2391 21.3335 14.3804 21.2704 13.53H21.2662C20.6726 12.9154 19.9444 12.4355 19.1445 12.124C20.1548 13.2059 20.7737 14.574 20.9294 16.039" fill="#FD9A7A"/>
<path d="M13.8926 10.0668C13.6695 10.1552 13.4548 10.252 13.2485 10.3573C12.7939 10.5846 12.3645 10.854 11.9604 11.1697L11.9267 11.195C11.6741 11.3929 11.43 11.6033 11.2027 11.8264C10.6891 12.3274 10.2387 12.8999 9.87242 13.5187C9.66615 13.8723 9.48093 14.2428 9.32517 14.6258L9.28729 14.7185C9.18205 14.9795 9.09785 15.2489 9.02208 15.5267C8.69373 16.7307 8.639 17.9936 8.8579 19.227C8.87053 19.2859 8.87895 19.3491 8.89158 19.4122C8.9421 19.6395 8.99682 19.8753 9.05996 20.0984C9.13574 20.3509 9.22414 20.6077 9.32517 20.8561C10.0071 22.5315 11.2237 23.9418 12.7855 24.8637C13.1517 25.0826 13.539 25.2678 13.9305 25.4193C16.9699 26.6233 20.426 25.9203 22.7665 23.6471C23.4822 22.9483 24.0715 22.1148 24.4883 21.1971C24.4167 21.2729 24.3451 21.3444 24.2694 21.4202C23.0528 22.6073 21.5247 23.4282 19.8661 23.7776C19.7903 23.8155 19.7145 23.8491 19.6388 23.8828C17.2393 24.9184 14.4567 24.4722 12.5077 22.7252C12.3982 22.6284 12.293 22.5273 12.1919 22.4179L12.1414 22.3674C11.2027 21.3907 10.5881 20.1573 10.3692 18.8271C10.3523 18.705 10.3355 18.5871 10.3186 18.465C10.2934 18.2251 10.2808 17.9851 10.2808 17.741C10.2765 16.4276 10.6554 15.1394 11.3879 14.0365C11.5689 13.7587 11.771 13.4977 11.9941 13.2451C12.0867 13.1398 12.1835 13.0388 12.2845 12.9378C13.5138 11.7338 15.1597 11.0519 16.8772 11.0266H17.0372C17.315 11.0308 17.5929 11.0477 17.8791 11.0856C19.0452 11.2371 20.1523 11.7002 21.0742 12.4284C21.0364 12.2811 20.9858 12.138 20.9395 11.9906C20.8974 11.877 20.8596 11.7675 20.809 11.6539C20.548 11.0224 20.1776 10.4331 19.7061 9.93211L19.6809 9.91527C19.2936 9.78477 18.8895 9.67532 18.4853 9.59955C17.9886 9.50694 17.475 9.46484 16.9741 9.46484C15.9259 9.46484 14.8735 9.66691 13.8926 10.0584" fill="#F0B80B"/>
<path d="M12.789 8.96735C12.7216 8.97997 12.6627 8.9884 12.6038 9.00523C12.3764 9.05575 12.1449 9.11047 11.9176 9.17783C11.7871 9.21571 11.6566 9.25781 11.5177 9.30412C11.3872 9.34621 11.2651 9.39673 11.143 9.44724C9.46338 10.125 8.05737 11.3416 7.13967 12.9118C7.01759 13.1096 6.91656 13.3159 6.81132 13.5264C6.73133 13.6948 6.65977 13.8631 6.58821 14.0399C4.98013 18.0812 6.77343 22.6739 10.6968 24.5514C10.7347 24.5682 10.7726 24.5851 10.8105 24.6061C10.7347 24.5346 10.6589 24.4588 10.5874 24.383C9.40024 23.1706 8.57936 21.6383 8.22575 19.9797C8.19207 19.925 8.15419 19.8366 8.1163 19.7524C8.05737 19.6177 8.00264 19.4746 7.95213 19.3272C7.36278 17.6518 7.4596 15.8122 8.22996 14.2083C8.36046 13.9431 8.5078 13.6779 8.66776 13.4211C8.85299 13.1433 9.05505 12.8739 9.27816 12.6213C9.38761 12.495 9.50548 12.3771 9.62756 12.2593C9.85067 12.0404 10.0948 11.8383 10.3516 11.6573C10.7431 11.3795 11.1683 11.1395 11.6187 10.9501C12.6669 10.1545 13.8709 9.60721 15.1548 9.34621C15.6305 9.24939 16.1188 9.18625 16.5987 9.1652L16.4893 9.13152C15.7736 8.92946 15.0285 8.82422 14.275 8.82422C13.7783 8.82422 13.2815 8.87473 12.7932 8.95893" fill="#F3759C"/>
<path d="M23.7291 11.0216C23.8596 11.3879 23.9648 11.7752 24.0448 12.1582C24.0701 12.213 24.1164 12.3014 24.1501 12.3813C24.3648 12.8781 24.5121 13.3959 24.5963 13.9263C24.6552 14.2883 24.6889 14.6503 24.6889 15.0292C24.6931 16.3384 24.3058 17.6265 23.5818 18.7211C23.4008 18.9989 23.1987 19.2599 22.9756 19.5125C22.883 19.6177 22.7861 19.7187 22.6851 19.8198L22.6346 19.8619C22.0579 20.4175 21.3801 20.8722 20.6434 21.1879C19.9194 21.7267 19.1111 22.1645 18.2524 22.4592C17.4189 22.7497 16.5559 22.9181 15.6719 22.9601C15.7056 22.9728 15.7434 22.977 15.7771 22.9854C16.9811 23.3138 18.244 23.3727 19.4774 23.1538H19.5111C19.5658 23.137 19.6205 23.1327 19.6752 23.1159C19.8983 23.0738 20.1215 23.0107 20.3614 22.9475C20.6013 22.876 20.8287 22.8002 21.0686 22.7034L21.1023 22.6907C22.1 22.2866 23.0135 21.693 23.7796 20.9353C24.2932 20.4344 24.7436 19.8619 25.1099 19.2388C25.3246 18.8768 25.5098 18.4979 25.6613 18.1107C26.8821 15.0671 26.1917 11.5899 23.8975 9.24097C23.1987 8.52533 22.3736 7.9444 21.4601 7.52344C22.4788 8.48744 23.2618 9.69561 23.7249 11.0258" fill="#4B1CD6"/>
<path d="M7.82005 10.6895C7.80321 10.7232 7.78637 10.7611 7.76953 10.7948C8.74617 9.76763 9.94591 9.00147 11.2762 8.52578C11.6424 8.39529 12.017 8.29005 12.4001 8.21006C12.4801 8.16797 12.5643 8.13008 12.6443 8.0964C12.7748 8.04168 12.9095 7.98695 13.0484 7.94486C13.4189 7.81436 13.8061 7.71754 14.1976 7.65439C15.8562 7.38919 17.5653 7.747 18.9671 8.68154C19.245 8.86256 19.5018 9.06462 19.7543 9.28352C19.8764 9.39297 19.9943 9.50242 20.108 9.62029C20.6636 10.197 21.1183 10.879 21.434 11.6157C21.4929 11.7588 21.5476 11.8935 21.5982 12.0366C21.7287 12.4029 21.8255 12.7901 21.8886 13.1774C21.9097 13.2995 21.9265 13.4174 21.9391 13.5437C21.9644 13.7836 21.9812 14.0236 21.9812 14.2677C21.9812 15.2654 21.7581 16.2547 21.3203 17.1597C21.194 17.4249 21.0425 17.6901 20.8825 17.9385C19.6533 19.7992 17.5948 20.9316 15.3637 20.9652C15.0354 20.9694 14.7028 20.9484 14.3702 20.9063C13.6841 20.8137 13.0105 20.6116 12.3833 20.3127C11.9581 20.1107 11.5498 19.8581 11.1793 19.5719C11.4361 20.5064 11.9034 21.3609 12.5601 22.0766C12.9474 22.2113 13.3557 22.3207 13.7598 22.3965C14.8122 22.5986 15.8983 22.5859 16.9465 22.3713C17.3128 22.2955 17.6706 22.1902 18.0284 22.0724C18.1547 22.0303 18.2726 21.984 18.3946 21.9292C18.6009 21.8408 18.8072 21.7482 19.005 21.6514C20.4237 20.9442 21.6066 19.8328 22.4022 18.4647C22.5159 18.2753 22.6253 18.0648 22.7306 17.8501C22.8063 17.6901 22.8779 17.5302 22.9452 17.366L22.9579 17.3407C23.0673 17.0671 23.1641 16.7893 23.2399 16.4988C23.5767 15.2949 23.6398 14.032 23.4083 12.7986C23.3957 12.7312 23.3873 12.6723 23.3746 12.6175C23.3325 12.3902 23.2694 12.1587 23.202 11.923C23.1641 11.7925 23.122 11.662 23.0757 11.523C23.0336 11.401 22.9873 11.2831 22.941 11.161C22.2717 9.48137 21.0551 8.06694 19.4933 7.15345C19.2871 7.02716 19.0682 6.9135 18.8535 6.81668C18.6935 6.7409 18.5378 6.66934 18.3736 6.60198C17.3633 6.19786 16.3151 6.00001 15.2879 6.00001C12.1896 5.9958 9.23869 7.73859 7.82426 10.6895" fill="#892BEA"/>
</svg>
