<svg width="26" height="26" viewBox="0 0 26 26" fill="none" xmlns="http://www.w3.org/2000/svg">
<path d="M0 7.83728C0 3.50887 3.50886 0 7.83727 0H17.242C21.5704 0 25.0793 3.50886 25.0793 7.83727V17.242C25.0793 21.5704 21.5704 25.0793 17.242 25.0793H7.83728C3.50887 25.0793 0 21.5704 0 17.242V7.83728Z" fill="#FF6518" fill-opacity="0.67"/>
<path d="M18.4644 18.5995L15.5271 17.734L13.3119 19.0444L11.7664 19.0438L9.5499 17.734L6.61382 18.5995L5.7207 15.6159L6.61382 12.3046L5.7207 9.50497L6.61382 6.03516L11.2017 8.74762H13.8766L18.4644 6.03516L19.3575 9.50497L18.4644 12.3046L19.3575 15.6159L18.4644 18.5995Z" fill="#FF5C16"/>
<path d="M6.61523 6.03516L11.2031 8.74953L11.0206 10.6124L6.61523 6.03516Z" fill="#FF5C16"/>
<path d="M9.55078 15.6172L11.5694 17.1389L9.55078 17.734V15.6172Z" fill="#FF5C16"/>
<path d="M11.4098 13.1011L11.0218 10.6133L8.53838 12.3049L8.53711 12.3043V12.3055L8.54479 14.0468L9.55186 13.1011H9.55251H11.4098Z" fill="#FF5C16"/>
<path d="M18.4648 6.03516L13.877 8.74953L14.0588 10.6124L18.4648 6.03516Z" fill="#FF5C16"/>
<path d="M15.5284 15.6172L13.5098 17.1389L15.5284 17.734V15.6172Z" fill="#FF5C16"/>
<path d="M16.5439 12.3055V12.3043L16.5433 12.3049L14.0599 10.6133L13.6719 13.1011H15.5292L16.5369 14.0468L16.5439 12.3055Z" fill="#FF5C16"/>
<path d="M9.5499 17.734L6.61382 18.5995L5.7207 15.6172H9.5499V17.734Z" fill="#E34807"/>
<path d="M11.4067 13.0996L11.9675 16.6961L11.1903 14.6964L8.54102 14.046L9.54875 13.0996H11.406H11.4067Z" fill="#E34807"/>
<path d="M15.5293 17.734L18.4654 18.5995L19.3585 15.6172H15.5293V17.734Z" fill="#E34807"/>
<path d="M13.6702 13.0996L13.1094 16.6961L13.8866 14.6964L16.5359 14.046L15.5275 13.0996H13.6702Z" fill="#E34807"/>
<path d="M5.7207 15.616L6.61382 12.3047H8.5345L8.54154 14.0466L11.1908 14.697L11.968 16.6967L11.5685 17.1371L9.5499 15.6154H5.7207V15.616Z" fill="#FF8D5D"/>
<path d="M19.3567 15.616L18.4636 12.3047H16.5429L16.5359 14.0466L13.8866 14.697L13.1094 16.6967L13.5089 17.1371L15.5275 15.6154H19.3567V15.616Z" fill="#FF8D5D"/>
<path d="M13.8762 8.74609H12.5388H11.2014L11.0195 10.6089L11.9677 16.6932H13.1099L14.0587 10.6089L13.8762 8.74609Z" fill="#FF8D5D"/>
<path d="M6.61382 6.03516L5.7207 9.50497L6.61382 12.3046H8.5345L11.0192 10.6124L6.61382 6.03516Z" fill="#661800"/>
<path d="M10.8517 13.8229H9.98158L9.50781 14.2824L11.191 14.6954L10.8517 13.8223V13.8229Z" fill="#661800"/>
<path d="M18.464 6.03516L19.3571 9.50497L18.464 12.3046H16.5433L14.0586 10.6124L18.464 6.03516Z" fill="#661800"/>
<path d="M14.2286 13.8229H15.1L15.5737 14.283L13.8887 14.6967L14.2286 13.8223V13.8229Z" fill="#661800"/>
<path d="M13.3117 17.8568L13.5102 17.1377L13.1107 16.6973H11.9679L11.5684 17.1377L11.7668 17.8568" fill="#661800"/>
<path d="M13.3105 17.8574V19.045H11.7656V17.8574H13.3105Z" fill="#C0C4CD"/>
<path d="M9.55078 17.7337L11.7679 19.0454V17.8579L11.5694 17.1387L9.55078 17.7337Z" fill="#E7EBF6"/>
<path d="M15.5277 17.7337L13.3105 19.0454V17.8579L13.509 17.1387L15.5277 17.7337Z" fill="#E7EBF6"/>
</svg>
