<svg width="26" height="26" viewBox="0 0 26 26" fill="none" xmlns="http://www.w3.org/2000/svg">
<path d="M0 7.83728C0 3.50887 3.50886 0 7.83727 0H17.242C21.5704 0 25.0793 3.50886 25.0793 7.83727V17.242C25.0793 21.5704 21.5704 25.0793 17.242 25.0793H7.83728C3.50887 25.0793 0 21.5704 0 17.242V7.83728Z" fill="#B4A9F3" fill-opacity="0.67"/>
<path fill-rule="evenodd" clip-rule="evenodd" d="M10.8334 16.0128C9.954 17.3604 8.48035 19.0659 6.51949 19.0659C5.59253 19.0659 4.7012 18.6844 4.70117 17.0267C4.7011 12.8049 10.4649 6.26962 15.8128 6.26953C18.8551 6.26947 20.0674 8.38027 20.0674 10.7773C20.0674 13.8541 18.0708 17.3723 16.0863 17.3723C15.4564 17.3723 15.1474 17.0264 15.1474 16.478C15.1474 16.3349 15.1711 16.1798 15.2187 16.0128C14.5412 17.1695 13.234 18.2431 12.0099 18.2431C11.1186 18.2431 10.6671 17.6825 10.6671 16.8953C10.6671 16.6091 10.7265 16.311 10.8334 16.0128ZM14.8029 9.51557C14.3188 9.51643 13.9888 9.92772 13.9898 10.5144C13.9909 11.1012 14.3224 11.523 14.8064 11.5222C15.2788 11.5214 15.6087 11.0983 15.6077 10.5116C15.6066 9.92486 15.2753 9.51474 14.8029 9.51557ZM17.3707 9.51278C16.8866 9.51363 16.5566 9.92492 16.5576 10.5116C16.5587 11.0984 16.89 11.5202 17.3742 11.5194C17.8466 11.5186 18.1765 11.0955 18.1755 10.5088C18.1744 9.92206 17.8431 9.51195 17.3707 9.51278Z" fill="white"/>
</svg>
